<?xml version="1.0" encoding="iso-8859-1"?>
<!-- Generator: Adobe Illustrator 18.0.0, SVG Export Plug-In . SVG Version: 6.00 Build 0)  -->
<!DOCTYPE svg PUBLIC "-//W3C//DTD SVG 1.1//EN" "http://www.w3.org/Graphics/SVG/1.1/DTD/svg11.dtd">
<svg version="1.1" fill="#bead8e" id="Capa_1" xmlns="http://www.w3.org/2000/svg" xmlns:xlink="http://www.w3.org/1999/xlink" x="0px" y="0px"
	 viewBox="0 0 461.507 461.507" style="enable-background:new 0 0 461.507 461.507;" xml:space="preserve">
<g id="XMLID_797_">
	<path id="XMLID_826_" d="M290.986,82.706c-3.498-2.699-8.522-2.05-11.221,1.448l-6.108,7.918c-2.699,3.498-2.05,8.522,1.448,11.221
		c3.498,2.699,8.522,2.05,11.221-1.448l6.108-7.918C295.133,90.429,294.485,85.405,290.986,82.706z"/>
	<path id="XMLID_1744_" d="M269.858,110.095c-3.498-2.699-8.522-2.05-11.221,1.448l-15.02,19.47
		c-2.698,3.498-2.05,8.522,1.448,11.221c3.498,2.699,8.522,2.05,11.221-1.448l15.02-19.47
		C274.005,117.817,273.357,112.793,269.858,110.095z"/>
	<path id="XMLID_1777_" d="M239.819,149.035c-3.5-2.7-8.523-2.05-11.221,1.447l-6.108,7.917c-2.699,3.498-2.051,8.522,1.447,11.221
		c3.5,2.7,8.523,2.049,11.221-1.447l6.108-7.917C243.965,156.758,243.317,151.734,239.819,149.035z"/>
	<path id="XMLID_1778_" d="M248.27,83.738c3.124,3.124,8.189,3.124,11.314,0l10.606-10.607c3.124-3.125,3.124-8.189,0-11.313
		c-3.124-3.125-8.189-3.124-11.314,0L248.27,72.424C245.146,75.549,245.146,80.614,248.27,83.738z"/>
	<path id="XMLID_1782_" d="M222.107,98.587L211.5,109.194c-3.124,3.125-3.124,8.189,0,11.314c3.124,3.124,8.189,3.124,11.314,0
		l10.606-10.607c3.124-3.125,3.124-8.189,0-11.313C230.296,95.462,225.232,95.463,222.107,98.587z"/>
	<path id="XMLID_1783_" d="M239.936,58.349l7.917-6.108c3.498-2.699,4.146-7.722,1.447-11.221
		c-2.699-3.498-7.721-4.147-11.221-1.447l-7.917,6.108c-3.498,2.699-4.146,7.722-1.447,11.221
		C231.412,60.398,236.433,61.05,239.936,58.349z"/>
	<path id="XMLID_1802_" d="M200.995,88.389l19.47-15.02c3.499-2.699,4.147-7.723,1.448-11.221
		c-2.699-3.499-7.723-4.148-11.221-1.448l-19.47,15.02c-3.499,2.699-4.147,7.723-1.448,11.221
		C192.473,90.441,197.497,91.088,200.995,88.389z"/>
	<path id="XMLID_1803_" d="M106.076,136.386l9.433-27.8L99.483,70.889C81.29,72.96,68.35,89.431,70.518,107.516
		C72.64,125.219,88.441,137.938,106.076,136.386z"/>
	<path id="XMLID_1804_" d="M215.117,180.955l-63.618-29.777l-24.918,22.797l36.933-54.46c2.926-4.444,3.433-10.056,1.352-14.952
		l-25.305-59.588c-3.476-8.178-12.9-11.778-20.835-8.404c-8.089,3.439-11.831,12.773-8.404,20.835l21.499,50.57l-33.227,50.461
		l3.96-11.672l-14.116,1.692c-12.196,1.462-20.898,12.534-19.435,24.73l13.583,113.3h0.122v155.956
		c0,10.528,8.535,19.063,19.063,19.063s19.063-8.535,19.063-19.063V289.73c0-1.791,1.452-3.242,3.242-3.242s3.242,1.452,3.242,3.242
		v152.714c0,10.528,8.535,19.063,19.063,19.063s19.063-8.535,19.063-19.063c0-189.219-0.092-162.768,0.146-174.08l-4.318-35.028
		c-5.474,1.246-10.713,2.414-15.251,3.383c-14.053,3.002-28.509-2.72-34.404-15.826c-7.779-17.295,4.998-37.008,24.27-36.688
		c16.982,0.353,28.274,0.587,43.181,0.897l-41.285,8.41c-8.595,1.751-14.147,10.138-12.395,18.737
		c1.754,8.614,10.159,14.146,18.737,12.395c73.107-14.892,67.832-13.751,69.396-14.285c0,0.001,0,0.002-0.001,0.003
		c6.421-2.195,10.609-8.141,10.735-14.699C224.378,189.373,220.758,183.594,215.117,180.955z"/>
	<path id="XMLID_1805_" d="M379.752,15.267c-19.718-19.718-52.667-21.124-74.199,0.409c-11.804-7.022-27.031-6.067-37.903,2.863
		l-0.115-0.115c-3.193-3.193-8.371-3.193-11.564,0s-3.193,8.371,0,11.564l46.834,46.834c3.193,3.193,8.371,3.193,11.564,0
		c3.193-3.193,3.193-8.371,0-11.564l-0.115-0.115c8.93-10.872,9.885-26.1,2.863-37.904c15.016-15.018,37.594-13.885,51.071-0.409
		c5.238,5.238,8.122,12.202,8.122,19.609v80.406c0,4.516,3.661,8.177,8.177,8.177s8.177-3.661,8.177-8.177V46.44
		C392.664,34.665,388.078,23.594,379.752,15.267z"/>
</g>
<g>
</g>
<g>
</g>
<g>
</g>
<g>
</g>
<g>
</g>
<g>
</g>
<g>
</g>
<g>
</g>
<g>
</g>
<g>
</g>
<g>
</g>
<g>
</g>
<g>
</g>
<g>
</g>
<g>
</g>
</svg>
