<?xml version="1.0" encoding="iso-8859-1"?>
<!-- Generator: Adobe Illustrator 19.0.0, SVG Export Plug-In . SVG Version: 6.00 Build 0)  -->
<svg version="1.1" id="Layer_1" xmlns="http://www.w3.org/2000/svg" xmlns:xlink="http://www.w3.org/1999/xlink" x="0px" y="0px"
	 viewBox="0 0 511.997 511.997" style="enable-background:new 0 0 511.997 511.997;" xml:space="preserve">
<g>
	<g>
		<path d="M425.519,206.951c-39.455-39.455-90.243-63.458-145.022-68.982c2.244-4.028,3.529-8.663,3.529-13.594
			c0-15.454-12.573-28.027-28.027-28.027c-15.454,0-28.027,12.573-28.027,28.027c0,4.931,1.284,9.565,3.529,13.594
			c-54.779,5.524-105.567,29.527-145.023,68.982C41.197,252.232,16.26,312.435,16.26,376.472v7.835h112.296v-15.669H32.063
			c1.943-56.913,25.026-110.138,65.495-150.607c42.321-42.321,98.59-65.628,158.441-65.628c59.851,0,116.119,23.307,158.441,65.628
			c40.469,40.469,63.553,93.694,65.495,150.607H149.45v15.669h346.289v-7.835C495.738,312.435,470.801,252.231,425.519,206.951z
			 M255.999,136.732c-6.814,0.001-12.358-5.543-12.358-12.358c0-6.814,5.544-12.358,12.358-12.358
			c6.814,0,12.358,5.544,12.358,12.358C268.357,131.188,262.813,136.732,255.999,136.732z"/>
	</g>
</g>
<g>
	<g>
		<path d="M432.261,265.383l-13.244,8.376c14.074,22.255,23.28,46.679,27.364,72.593l15.478-2.438
			C457.442,315.876,447.484,289.454,432.261,265.383z"/>
	</g>
</g>
<g>
	<g>
		<path d="M255.999,168.071v15.669c59.008,0,114.005,26.591,150.887,72.954l12.262-9.755
			C379.277,196.817,319.811,168.071,255.999,168.071z"/>
	</g>
</g>
<g>
	<g>
		<rect y="399.98" width="511.997" height="15.669"/>
	</g>
</g>
<g>
</g>
<g>
</g>
<g>
</g>
<g>
</g>
<g>
</g>
<g>
</g>
<g>
</g>
<g>
</g>
<g>
</g>
<g>
</g>
<g>
</g>
<g>
</g>
<g>
</g>
<g>
</g>
<g>
</g>
</svg>
