<?xml version="1.0" encoding="iso-8859-1"?>
<!-- Generator: Adobe Illustrator 18.1.1, SVG Export Plug-In . SVG Version: 6.00 Build 0)  -->
<svg version="1.1" id="Capa_1" xmlns="http://www.w3.org/2000/svg" xmlns:xlink="http://www.w3.org/1999/xlink" x="0px" y="0px"
	 viewBox="0 0 326.344 326.344" style="enable-background:new 0 0 326.344 326.344;" xml:space="preserve">
<g>
	<path style="fill:#bead8e;" d="M163.482,89.745c-0.011,0-0.027,0-0.044,0c-5.988,0-10.856,4.846-10.878,10.835l-0.267,68.326
		c-0.022,6.005,4.83,10.9,10.835,10.922c0.011,0,0.027,0,0.044,0c0.054,0,0.103-0.016,0.158-0.016c0.044,0,0.082,0.016,0.12,0.016
		c0.37,0,0.745-0.103,1.115-0.141c0.299-0.033,0.598-0.054,0.897-0.114c1.115-0.212,2.219-0.538,3.269-1.12l86.079-47.929
		c5.249-2.921,7.136-9.546,4.21-14.794c-2.926-5.249-9.54-7.136-14.8-4.21l-70.104,39.031l0.196-49.882
		C174.344,94.656,169.492,89.766,163.482,89.745z"/>
	<path style="fill:#bead8e;" d="M326.344,163.172C326.344,73.052,253.292,0,163.172,0S0,73.052,0,163.172
		c0,14.174,1.811,27.924,5.211,41.032c2.638-15.365,16.023-27.103,32.129-27.103h1.528c-0.511-4.574-0.794-9.219-0.794-13.929
		c0-68.978,56.12-125.098,125.098-125.098S288.27,94.194,288.27,163.172S232.15,288.27,163.172,288.27
		c-3.916,0-7.789-0.207-11.612-0.56v3.612c0,14.734-9.823,27.206-23.257,31.247c11.237,2.448,22.898,3.775,34.87,3.775
		C253.292,326.344,326.344,253.292,326.344,163.172z"/>
	<path style="fill:#bead8e;" d="M140.681,286.204v-76.462c0-11.999-9.758-21.756-21.756-21.756H40.554h-3.214
		c-11.999,0-21.756,9.758-21.756,21.756v23.051v58.535c0,11.999,9.758,21.756,21.756,21.756h61.347h20.239
		c11.999,0,21.756-9.758,21.756-21.756C140.681,291.327,140.681,286.204,140.681,286.204z M97.832,254.374l19.673,19.673
		c1.626,1.626,1.985,4.009,1.126,5.999c-0.267,0.609-0.625,1.197-1.126,1.697l-8.164,8.164c-2.127,2.127-5.57,2.127-7.691,0
		l-19.673-19.673c-2.127-2.127-5.57-2.127-7.691,0l-17.019,17.019l-2.654,2.654c-2.127,2.127-5.57,2.127-7.691,0l-8.169-8.164
		c-2.127-2.127-2.127-5.57,0-7.691l2.491-2.491l17.187-17.187c2.127-2.127,2.127-5.57,0-7.691L38.759,227.01
		c-2.127-2.127-2.127-5.57,0-7.691l8.164-8.164c0.174-0.174,0.397-0.245,0.587-0.386c2.132-1.632,5.156-1.561,7.109,0.386
		l19.673,19.673c2.127,2.127,5.57,2.127,7.691,0l19.673-19.673c2.127-2.127,5.57-2.127,7.691,0l8.164,8.164
		c2.127,2.127,2.127,5.57,0,7.691l-19.673,19.673C95.711,248.805,95.711,252.253,97.832,254.374z"/>
</g>
<g>
</g>
<g>
</g>
<g>
</g>
<g>
</g>
<g>
</g>
<g>
</g>
<g>
</g>
<g>
</g>
<g>
</g>
<g>
</g>
<g>
</g>
<g>
</g>
<g>
</g>
<g>
</g>
<g>
</g>
</svg>
