<?xml version="1.0" encoding="iso-8859-1"?>
<!-- Generator: Adobe Illustrator 19.0.0, SVG Export Plug-In . SVG Version: 6.00 Build 0)  -->
<svg version="1.1" fill="#bead8e" id="Capa_1" xmlns="http://www.w3.org/2000/svg" xmlns:xlink="http://www.w3.org/1999/xlink" x="0px" y="0px"
	 viewBox="0 0 489.3 489.3" style="enable-background:new 0 0 489.3 489.3;" xml:space="preserve">
<g>
	<g>
		<g>
			<path d="M417,73.648h-65.6c-39.9,0-72.3,32.4-72.3,72.3c0,31.9,20.7,59,49.5,68.6v34.5c0,3.2,3.9,4.8,6.1,2.5l33.3-33.3h49
				c39.9,0,72.3-32.4,72.3-72.3S457,73.648,417,73.648z M410.4,151.548l-24.2,24.2c-0.5,0.5-1.2,0.8-1.9,0.8c-0.7,0-1.4-0.3-1.9-0.8
				l-24.2-24.2c-3.4-3.4-5.2-7.8-5.2-12.6s1.8-9.2,5.2-12.6c3.4-3.4,7.8-5.2,12.6-5.2c4.8,0,9.2,1.9,12.6,5.2l1,1l1-1
				c3.4-3.4,7.8-5.2,12.6-5.2c4.7,0,9.2,1.8,12.6,5.2s5.2,7.8,5.2,12.6C415.6,143.748,413.7,148.248,410.4,151.548z"/>
		</g>
		<path d="M329.1,348.048c-43.5-35.8-90.5-59.5-100.1-64.2c-1.1-0.5-1.7-1.6-1.7-2.8v-33.2c5.1-8.8,8.4-18.1,9.7-26.6
			c3.7-0.3,8.6-5.5,13.9-24.1c6.8-23.9,0.5-28.7-5.7-28.7c0.6-2,1.1-4.1,1.4-6.1c11-65.9-21.5-68.2-21.5-68.2s-5.4-10.3-19.5-18.2
			c-9.5-5.6-22.7-10-40.1-8.5c-5.6,0.3-11,1.4-16,3l0,0c-6.4,2.2-12.3,5.3-17.6,9c-6.5,4.1-12.7,9.2-18.1,15
			c-8.6,8.8-16.2,20.1-19.6,34.3c-2.8,10.6-2.2,21.6,0.2,33.5l0,0c0.4,2,0.9,4.1,1.4,6.1c-6.1,0.1-12.1,5.1-5.4,28.6
			c5.3,18.6,10.2,23.8,13.9,24.1c1.3,8.4,4.6,17.7,9.7,26.6v33.2c0,1.2-0.7,2.3-1.7,2.8c-9.5,4.7-56.5,28.4-100.1,64.2
			c-7.8,6.4-12.2,16.1-12.2,26.2v48.1h341.5v-48.1C341.3,364.148,336.9,354.548,329.1,348.048z"/>
	</g>
</g>
<g>
</g>
<g>
</g>
<g>
</g>
<g>
</g>
<g>
</g>
<g>
</g>
<g>
</g>
<g>
</g>
<g>
</g>
<g>
</g>
<g>
</g>
<g>
</g>
<g>
</g>
<g>
</g>
<g>
</g>
</svg>
